<svg id="Layer_1" data-name="Layer 1" xmlns="http://www.w3.org/2000/svg" viewBox="0 0 500 500"><defs><style>.cls-1{fill:#f7f7f7;}.cls-2{fill:#ffe3cb;}.cls-3{fill:#07090b;}.cls-4{fill:#fcfffd;}</style></defs><path d="M138.94,477.79l-.06,0c-11.75-9.2-17.86-24-16.35-39.61,1.33-13.69,8.43-25.07,19-30.44,1.68-.85,4.76,5.22,3.08,6.07-8.47,4.31-14.19,13.66-15.3,25-1.28,13.26,3.85,25.81,13.74,33.56,19.12,14.22,50.33,22,83.49,20.81,33.94-.6,83.23-10.66,110.69-37,5.82-5.47,33.42-34.25,7.7-66.09-1.18-1.46,4.11-5.73,5.29-4.28,22.88,28.32,9.82,58.26-8.31,75.3-12.59,12.1-30.93,22.13-53,29-19.31,6-41.4,10.34-62.18,9.89C197.33,499.33,182.22,500.84,138.94,477.79Z"/><path class="cls-1" d="M183.82,440.21c18.21,4.54,35.13,10.15,53.42,13.57,8.93,1.67,29.28,3.6,22.43,16.84a13.47,13.47,0,0,1-5.44,5.55c-10.57,11.63-46.43,7.49-57.27,5.95-17.51-2.49-56.7-14.75-61-35.66C131.29,423.66,174,437.75,183.82,440.21Z"/><path class="cls-2" d="M424.94,197.75a228.52,228.52,0,0,0-67.66,27.77q-1.69-4.05-3.72-7.84c2.83-42-.56-112.21.87-139.68,2.38-45.69-18.81-71.45-54.24-66.28C259.88,17.6,255,87.35,251.11,118.19c-1.82,14.3-4.93,28.61-7.37,43l-4,0c-2-29-6.77-63.87-20.8-103.48-11-31.15-32-68.08-68.63-50.92-23.63,11.08-21.19,88.85-15.76,119.47,3.3,18.63,4.46,37.94,7.81,56.78-2.17,1.08-4.31,2.22-6.42,3.4-9.84-28.84-25.13-53.21-38.11-83.82C81.65,64.51,46.92,52,20.69,75.75c-29.83,27-3.41,95.76,9.89,123.7,10.14,21.3,24.33,36.82,36.13,57.49,3,5.25,7,10.39,10.66,15.64C73.27,318.51,89,392.29,134.54,417a45,45,0,0,0-4.36,8.48c-.33.29-.21-.63-.42-.3-9.75,16.57-3.87,31.8,8.86,44.12,20.31,19.64,50.87,30.63,78.34,29.41,43.1-1.91,114.46-15.28,137.31-58.89,7.94-15.16,5.15-40.44-6.78-54,10.3-6.09,19.73-14.14,27.59-21.92,26-25.75,31-72.46,63.93-91.43,16.25-9.36,53.07-21.62,55.33-44.57C497.93,191.49,445.49,192.89,424.94,197.75Z"/><path class="cls-3" d="M79.09,270.76l-9.66-.33s0,1.11,0,3.18,0,5.12.1,9a244.07,244.07,0,0,0,3.07,31.87,208.45,208.45,0,0,0,12,43.63A164.91,164.91,0,0,0,103.31,392,112.78,112.78,0,0,0,112,402.15a94,94,0,0,0,20.88,16.46,84,84,0,0,0,24,9.17,91.63,91.63,0,0,0,23.86,1.76c24.05-1.53,38-6.83,51.08-13.51a57.51,57.51,0,0,0,9.81-6.92c.76-.77-.26-2.46-.95-1.8a62.77,62.77,0,0,1-10,6.47c-3.31,1.65-4.58,3.77-29.09,9.69a117.81,117.81,0,0,1-21,2.14,87.51,87.51,0,0,1-22.7-2.29,79.32,79.32,0,0,1-22.39-9.23,88.54,88.54,0,0,1-19.21-16,108.18,108.18,0,0,1-7.93-9.83c-9-11.41-15.64-29.07-17-32.8A200.32,200.32,0,0,1,81,313.2a233.91,233.91,0,0,1-2.14-30.76c0-3.72.07-6.64.14-8.63S79.09,270.76,79.09,270.76Z"/><path class="cls-3" d="M310.34,399.35a82.1,82.1,0,0,0,23.12-5.08,103.93,103.93,0,0,0,13.72-6A107,107,0,0,0,360,379.63a150.16,150.16,0,0,0,24.88-25.05c20.78-28,29.85-57.08,38.15-64.72a73.5,73.5,0,0,1,15.1-12.78c5.63-3.71,11.74-7,17.94-10.26C484,252.14,487.35,247,491,240.61c9.69-16,4.52-26.84.74-32.14-1.15-1.62-5.47-8.6-18.38-13.82a46,46,0,0,0-5.87-1.69,62.26,62.26,0,0,0-11.85-1.38,107.38,107.38,0,0,0-23,2.12,183.15,183.15,0,0,0-21.68,5.63c-7,2.25-13.81,4.8-20.4,7.54a306.79,306.79,0,0,0-36.88,18.34q-4.26,2.5-8.32,5.12c-1.35.88-17.79,12.69-22.32,16.4-9,7.48-17.19,14.71-24.87,21a237.42,237.42,0,0,1-21.44,16.1A105.09,105.09,0,0,1,259,293.38a80.61,80.61,0,0,1-11.57,3.73c-1.35.38-2.41.55-3.13.76a3.3,3.3,0,0,0-1.2.44c-.13.2.86.79,5.11-.06,21.44-5.48,26.26-10.77,29.29-12.65a246.54,246.54,0,0,0,21.69-15.48c7.65-6,15.69-12.74,24.42-19.66,4.37-3.45,35.6-26.77,63.73-36.86a242.78,242.78,0,0,1,39.18-12.78,131.23,131.23,0,0,1,20.94-3.11c15.09-1.14,24.19,2.89,25.75,3.59,11.64,4.15,14.71,13.56,14.71,13.56.71,1.48,5,9.3-2.69,22.79a45.74,45.74,0,0,1-6.51,7.51,64.75,64.75,0,0,1-7.92,6.32c-1.42.93-8.14,4.74-8.92,5.16-3.14,1.7-15.64,8.48-18.73,10.29a109.69,109.69,0,0,0-17.71,12.4c-5.41,4.85-15.95,18.89-22.72,35.08a252.05,252.05,0,0,1-18.87,33.43,147.84,147.84,0,0,1-22.71,26.59c-4.11,3.67-6.78,9.23-34,19.37-7.47,2.45-32.09,5.1-47.12.23-2.33-.92-3.38-1.38-3.35-1.14s1.17,1.17,3.63,2.41C283.3,396,287.55,399.56,310.34,399.35Z"/><path class="cls-3" d="M79.09,270.76c-6.9-8.45-26.59-34.32-35.16-51.38A419.11,419.11,0,0,1,19.5,158.74c-1.83-5.71-6.32-17-8.74-35.42-2.87-19.9,1.6-30.78,3.91-36.36S22,76,29.24,71.27a47.79,47.79,0,0,1,30.6-3.4,43.93,43.93,0,0,1,15.61,7.57c4.59,3.49,19,24.35,20.34,26.78,5.29,9.68,10.06,19,14.37,27.63,8.62,17.28,24.31,55,28.73,65.3.55,1.29.75-3.28-6.62-24-4.25-10.48-10.74-25.26-19.07-42.75-4.17-8.74-8.78-18.16-13.94-28C98,97.88,90.52,82,78.23,71.82a48.41,48.41,0,0,0-17.14-8.69c-6.33-1.74-18.43-2.3-34.14,3.13C25.41,67-.92,76,4.15,123.94c.27,3.26,6.61,31.14,8.36,37A428.66,428.66,0,0,0,36.3,223.15c8.49,17.67,17.42,31.6,24.63,40.74,3.59,4.58,10.28,12.4,12.46,14.67C74.49,279.7,79.69,272.77,79.09,270.76Z"/><path class="cls-3" d="M147.18,191.14h0l.07.16v0l-.67.25.15-.06.33-.12.16-.07h0l0,0c0-.09-.05-.16-.09-.31-.16-.54-7.24-40.24-9.1-58.33-.92-9-1.73-18.87-2.22-29.26s.5-44,1.2-49.74c.84-16,6.29-29.89,7.64-32.4,2.69-5,7.74-10.49,12.4-13.17,2.33-1.33,10.27-2.7,15.82-2.55,11.84,1.61,20.2,9.2,22.15,11.26a61.46,61.46,0,0,1,5.41,6.6,109.93,109.93,0,0,1,8.69,14.66,224,224,0,0,1,12.11,30.32c3.23,9.92,5.81,19.46,7.94,28.33A419.09,419.09,0,0,1,237.34,140c.69,5.28,2.68,27.27,2.57,24.37s.53-19.33-.06-24.67A422.13,422.13,0,0,0,232.49,96c-2-9-4.4-18.65-7.47-28.75a227.41,227.41,0,0,0-11.77-31.15c-2.51-5.24-7.6-14.79-14.48-22.71C196.66,11,186,.85,173.78,0c-10.71-.17-16.62,1.25-19.61,2.9s-6.76,3.78-9,6.26c-4.14,5.22-9.83,6-15.07,43.58-.84,5.94-1.39,11.82-1.76,17.61-.72,11.58-.75,22.76-.46,33.34s.93,20.55,1.69,29.74c1.54,18.39,3.59,33.62,5.27,44.28.85,5.33,3.43,17.79,4,20.71C139.19,199.89,147.18,191.14,147.18,191.14Z"/><path class="cls-3" d="M239.29,164.46H249s0-1.63,0-4.69,0-7.56.21-13.29a463.21,463.21,0,0,1,3.69-47.26,282.92,282.92,0,0,1,5.81-31c1.36-5.4,3-10.88,4.94-16.34a105.73,105.73,0,0,1,7.24-16A54.34,54.34,0,0,1,281.67,22a37.46,37.46,0,0,1,15.52-8.18,42.34,42.34,0,0,1,18.08-.55,45.61,45.61,0,0,1,17.05,6.93c2.57,1.72,14.65,7.09,19.57,30.66,3.39,19,1.23,61.63,1.14,73.08,0,2.87-.12,51-.27,59s-.23,15.09-.16,20.89.19,10.33.45,13.49c.12,1.58.56,5.65,2.16,7.33a2.61,2.61,0,0,0,2.52.71c.19-.19.11-.64-.22-1.3s-2.79-2-2.38-20.24c0-5.76.24-12.76.53-20.8s2.72-82.19,3.31-94.63c.3-6.22.45-12.58.24-19A113.14,113.14,0,0,0,357,49.75,71.17,71.17,0,0,0,354.24,40a58.27,58.27,0,0,0-4.42-9.36A50.21,50.21,0,0,0,316.46,7.11a48.92,48.92,0,0,0-20.86.28,44.42,44.42,0,0,0-18.5,9.35,61.49,61.49,0,0,0-12.58,15.47,113.63,113.63,0,0,0-8.08,17c-2.17,5.72-4,11.41-5.46,17A290.63,290.63,0,0,0,244.43,98a473.56,473.56,0,0,0-4.62,48.1c-.27,5.83-.39,10.41-.45,13.54S239.29,164.46,239.29,164.46Z"/><path class="cls-3" d="M306.65,178.1c-2.89-2.64-7.76-5.57-14.12-8.26a126,126,0,0,0-23.13-7.05c-2.24-.45-13-1.63-14.24-1.72-4.9-.29-10-.55-15.2-.57-2.61-.06-18.19.63-32.3,2.19-15.87,3.23-28.68,7.36-34,9.64a123.53,123.53,0,0,0-28,16.73,138.08,138.08,0,0,0-19.15,18.66c-4.93,5.81-8.45,10.85-10.89,14.24-4.54,6.69-3.63,7.89,1.05,1.25a142.37,142.37,0,0,1,11.48-13.62A138.5,138.5,0,0,1,147,193.2a151.69,151.69,0,0,1,58-23.55,238.1,238.1,0,0,1,31.57-3.36c23.7-1.38,61.42,7.22,69.27,13.25,2.82,2.54,4,3.89,4.42,3.65C310.38,183.13,310.39,182.13,306.65,178.1Z"/><path class="cls-4" d="M164.73,203.06c-10.41.7-19.21,6.77-27.58,12.46a76.44,76.44,0,0,0-16.09,15.1A92.41,92.41,0,0,0,100,262.71c-5.85,15.32-4.54,48.2,20.46,41.11,17.75-5,15-32.22,21.34-45.12,4.42-8.93,10.84-15.13,18.13-22,6-5.66,13.58-9.94,17.85-17.05C184.3,208.72,176.19,202.3,164.73,203.06Z"/><path class="cls-4" d="M46.21,128.25c-1.34-10.71.77-18.88,2.29-29.43,2.38-16.51-8.35-26-20.6-11.86-.21.24-.41.49-.61.74l.05-.77c-11.94,10.47-8.92,33.25-6.42,47,1.77,9.75,5.85,23.18,13.87,29.62,6.8,5.45,12.73,4.18,14.16-4.69C50.59,148.69,47.48,138.3,46.21,128.25Z"/><path class="cls-4" d="M173.77,26.87c-3.41-21.27-23.07-11.22-28.08,4.42a36,36,0,0,0-1.18,13.82A159.43,159.43,0,0,0,143.44,63c0,7.79-.28,22.33,8.58,26.35,8.34,3.78,10.5-8.68,11-14.47.85-10,1.42-19.3,5.14-28.77C170.74,39.61,175,34.38,173.77,26.87Z"/><path class="cls-4" d="M309.46,21.26c-18-2.1-28.61,9.66-34.12,24.31a75.71,75.71,0,0,0-6.8,17.77c-2,8.58-3.81,22.07,3.46,28.77,6.12,5.63,13,1.9,16.74-4.46,4.95-8.45,5.68-19,11.41-27.21,4.51-6.45,12.45-9,18.44-13.67C332,36.29,324,23,309.46,21.26Z"/></svg>