<svg id="Layer_1" data-name="Layer 1" xmlns="http://www.w3.org/2000/svg" viewBox="0 0 500 500"><defs><style>.cls-1{fill:#ffe3cb;}.cls-2{fill:#fcfffd;}.cls-3{fill:#07090b;}</style></defs><path class="cls-1" d="M369.79,150.5C368,116.7,355,97.09,323.66,81.71c-30.79-15.12-46.28-9.28-73.84,8.1-7.92-39-57.72-49.91-88.76-32.93-35.41,19.35-48.78,65.17-50.91,104l8.76,110.32c-6.62,21.62-4.36,38.64,3.43,52.56-10.7,2.58-20.42,7.41-27.56,15.4-.41.15,0-.66-.29-.42-14.83,11.85-14.76,28-7.34,43.81,11.84,25.26,36.18,46.15,62,54.69,40.47,13.4,111,26.18,147.48-6,12.48-11,18.3-25.46,12.48-41.44a111.13,111.13,0,0,0,15.06-9.89c24.23-18.73,31.86-37.4,45.31-61.52,8.1-14.54,13.67-10.26,27.59-16.48,13.14-5.88,18.29-12.75,26.32-25.88C448.91,234.24,440.6,129,369.79,150.5Z"/><path class="cls-2" d="M139.09,371.66c15.22,10.6,28.86,21.73,44.54,31.32,7.65,4.68,25.76,13.62,14.78,23.42a13.32,13.32,0,0,1-7,3.21c-13.84,7-45.49-9.43-55-14.67-15.28-8.45-47.15-33.55-43.75-54.34C96.43,337.92,130.87,365.94,139.09,371.66Z"/><path d="M230,455q-5.61,0-11.43-.37a226.15,226.15,0,0,1-60.87-12.75c-32.4-11-59.79-30.23-73.22-51.34l0-.06a46.43,46.43,0,0,1-2-44.28c5.47-11,14.84-18,25.71-19.13a3.36,3.36,0,1,1,.71,6.68c-8.54.91-16,6.54-20.4,15.44A39.66,39.66,0,0,0,90.13,387c12.65,19.85,38.72,38,69.76,48.57,31.53,11.39,80.58,19.46,115.2,4.8,7.3-3,39.36-23.4,32.62-49.71-.46-1.8,4.87-3.93,5.36-2.14,7,25.54-12.66,48.71-35.39,58.05C264.5,452.12,248.16,455,230,455Z"/><path class="cls-3" d="M246,300.18c.14-1.92,1.77-15.47,2-20a74.54,74.54,0,0,0-.62-14.84c-.36-2.43-4-16.84-17.25-29.29a43.17,43.17,0,0,0-14.17-8.41,102.22,102.22,0,0,0-21.61-5.25c-4-.65-4.45.69-.52,1.49a78.74,78.74,0,0,1,19.79,7.19,62.75,62.75,0,0,1,12.09,8.05A48.18,48.18,0,0,1,235.74,251a53.69,53.69,0,0,1,5.72,13.84,84.2,84.2,0,0,1,2.39,14.33c.4,4.58.6,19.06.54,21.16C244.29,304.45,245.7,304.17,246,300.18Z"/><path class="cls-3" d="M376.65,306.27,367.1,306s1.63,6.38-8.79,28.47c-2.22,4.12-6.14,14.61-30.16,40.23a97.22,97.22,0,0,1-15,11c-5.37,3.24-28.9,18.07-67.2,13.58-27-3.18-29.34-10.18-29.34-10.18-2.19-1.71-1.21,1.84-.9,2.09s-1,7.14,29.91,11.4c35.94,5,45.93-2.24,52.17-4.14A95.72,95.72,0,0,0,316,390.8a103.6,103.6,0,0,0,16.42-11.16c21.86-19.76,30.66-36.74,33.2-41.05C377.68,314,376.65,306.27,376.65,306.27Z"/><path class="cls-3" d="M116.61,116.2l10.2.13c3.48-14.92,4.65-19.23,4.59-19.07,16.44-39,37.67-42,40.88-43.18,27.45-6.53,45.49,1,51.59,4.49a48.33,48.33,0,0,1,8.42,6.19,52.14,52.14,0,0,1,6.84,7.66,66.8,66.8,0,0,1,5.3,8.54c1.55,2.93,2.88,5.9,4.09,8.85a84,84,0,0,1,4.6,17.17,239.12,239.12,0,0,1,3.5,26.86,48.6,48.6,0,0,1-.05,7.44c-.21,4.87,1.79,5.21,2.09,3a94.15,94.15,0,0,0,.45-10.58,238.63,238.63,0,0,0-2.7-27.3c-.41-2.8-.87-5.72-1.43-8.75-.14-.75-1.09-4.35-1.22-4.73-.51-1.5-1-3-1.62-4.56a98.54,98.54,0,0,0-4-9.34,70.78,70.78,0,0,0-5.36-9.26,56.66,56.66,0,0,0-7.19-8.56,54.08,54.08,0,0,0-9.08-7.11,64.64,64.64,0,0,0-21.81-8.26c-3.82-.8-21.92-3.17-45.11,6.1-6.58,3.52-31.32,18-42.46,61.45Z"/><path class="cls-3" d="M248.58,85.36l5.14,9.18s5.5-8.81,30.31-14.72a61.06,61.06,0,0,1,23.22.69c14.68,3.73,21.21,9.09,25.31,11.94a67.42,67.42,0,0,1,20.84,23.09A77.08,77.08,0,0,1,359.81,131a99.92,99.92,0,0,1,3.56,17s2.62,12.61-.94,35.47c-.69,4.44-3.77,16.05-4.18,17.48a156.79,156.79,0,0,1-6.19,16.8s-7.42,15.2-7.79,15.82a86.89,86.89,0,0,1-19.07,25.74c-4.08,3.48-10.73,9-29.09,11.89a34.09,34.09,0,0,1-13.32-2.54c-.52-.21-9.76-3.38-18.66-14.75a43.82,43.82,0,0,1-6.79-17.32,63.13,63.13,0,0,1-.73-12.15c.09-1.41.4-5.72.38-6.24a1.72,1.72,0,0,1,0,.18c0-.18-1.86-.43-1.86-.43-.14.52-.62,4.93-.74,6.38a65,65,0,0,0,.52,12.65,46.35,46.35,0,0,0,6.88,18.52,37.68,37.68,0,0,0,9.38,10.27c12,10.15,19.77,9.05,25,9,21.52-1.59,30.95-10.64,37.48-18,1.92-2.16,8.3-10.8,10-13.23,7.26-11.12,18-35,19.9-40.94.46-1.48,4.69-18.1,4.69-18.1l1.48-9.26c.18-1.56.88-17.17.87-18.72s-.67-9.31-.67-9.31a107,107,0,0,0-3.45-18.12,84.44,84.44,0,0,0-6.66-16.93,75.23,75.23,0,0,0-22.64-26.05c-4.48-3.23-10-8.55-27.86-13.72a69.79,69.79,0,0,0-26.57-1.3c-7.89,1.16-15.68,3.27-20.87,5.73C255.48,79,248.58,85.36,248.58,85.36Z"/><path class="cls-3" d="M366.48,148.16l4,8.68s7.71-3,11.51-3.74c5.83-2.44,15.16-1.13,22.08,1.84a69.61,69.61,0,0,1,8.34,4.32c12.74,9.5,16.35,23.94,17.49,28a81.9,81.9,0,0,1,2.47,12.6,101.89,101.89,0,0,1,.64,13.4c-.06,4.57-.4,9.21-.91,13.89-1,9.36-2.8,18.87-4.61,28.4-.12.59-3.55,12.31-4,13.36a69,69,0,0,1-6.67,12.2,63.87,63.87,0,0,1-19.43,18.59,48.44,48.44,0,0,1-11.75,5.16,42.82,42.82,0,0,1-12.13,1.65,42.29,42.29,0,0,1-21.43-6.27,38.41,38.41,0,0,1-13.18-13.63,50.48,50.48,0,0,1-5.36-13.91,70.71,70.71,0,0,1-1.51-9.59c-.19-2.24-.23-3.44-.23-3.44-.11-2.13-.61-3.2-1.15-3.21s-1.09,1.09-1,3.28c0,0,0,1.24.16,3.54a71.94,71.94,0,0,0,1.32,10A53.23,53.23,0,0,0,336.39,288a41.62,41.62,0,0,0,13.88,15,46.7,46.7,0,0,0,10.64,5.09,44.68,44.68,0,0,0,12.48,2.24,46.56,46.56,0,0,0,13.33-1.48,53,53,0,0,0,12.92-5.31A68.25,68.25,0,0,0,421,284.05a74.37,74.37,0,0,0,7.5-13c7.39-20.3,8.8-33.52,10.09-43.19.65-4.83,1.11-9.67,1.29-14.49a108.6,108.6,0,0,0-.35-14.34,88.13,88.13,0,0,0-2.37-13.81c-1.15-4.45-3.22-21.6-18.38-32.92-1.62-1.19-12.32-11.75-38.34-8.35C375.86,144.73,366.48,148.16,366.48,148.16Z"/><path class="cls-2" d="M292.22,91.52c-7.13-7.39-14.38-5.18-19.21-.29a14.29,14.29,0,0,0-1.22,1.35c-4.28,5.19-6,12.36-2.91,15.1a22.13,22.13,0,0,0,1.13,3.61c2.88,7,6.72,13.17,9.07,20.5,1.92,6,4.53,11.79,12,12.11C309.57,144.7,299.92,99.5,292.22,91.52Z"/><path class="cls-2" d="M395.73,162c-6.56-10-19-4.05-21.47,6.23a48.89,48.89,0,0,0-1,13.94c-1.58,14.33,1.45,30.59,9.31,32.53,11.8,2.9,15.56-19.1,16.51-26C400.36,179.64,401,169.93,395.73,162Z"/><path class="cls-1" d="M258.33,145.8c-13.43-4.86-29-6.44-43.24-12-16.18-6.37-39.49-26.48-57.32-27C125,105.9,85.38,132.35,71.33,161c-21.87,44.59-8.54,194.24,93.74,194.81l-7.92-141.77c25,9.17,80.07,19.72,102.9.77C284.74,194.33,293,158.32,258.33,145.8Z"/><path class="cls-3" d="M174.73,219.41q4.13,1.07,9.17,2.17c3.36.72,7,1.43,11,2.09a172.42,172.42,0,0,0,27,2.41c21.8-.91,29.55-4.67,32.27-6a36.34,36.34,0,0,0,7.71-5,66.69,66.69,0,0,0,6.78-6.49,61.65,61.65,0,0,0,10.86-16.35,46.67,46.67,0,0,0,3.21-9.82c.7-3.45,1.92-18.63-8.79-30.5-2.81-2.59-8.46-7.72-20.42-10.34-7.19-2.19-18-2.72-42.63-12.95-6.62-3.47-13.1-7.71-19.84-11.75-3.37-2-19.58-10.18-21.55-10.87a33.2,33.2,0,0,0-12.57-2.37,70,70,0,0,0-12.38,1,96.17,96.17,0,0,0-25.1,8.08,121.48,121.48,0,0,0-22.25,13.7C90.3,131.72,75.42,143.08,65.9,167a117.77,117.77,0,0,0-5,24.53,191.11,191.11,0,0,0-.86,24.17,217.21,217.21,0,0,0,6,45.34c.84,3.55,6.86,26.56,14.26,39a118.81,118.81,0,0,0,21,29.52A87.71,87.71,0,0,0,125.55,347c21.54,9.79,39.34,8.14,39.51,8s-1.15-.4-4-.6c-.71,0-10.65.5-28.72-6.29-.95-.35-4.77-2.08-5.72-2.59a84.62,84.62,0,0,1-23-17.1,114.22,114.22,0,0,1-19.5-27.95A168.86,168.86,0,0,1,71,264a202.89,202.89,0,0,1-3.88-20.57c-4.12-32.91.11-59.4,2-66.89a77.34,77.34,0,0,1,3.52-11A61.4,61.4,0,0,1,78,155.4a94.48,94.48,0,0,1,15.5-17.91A117.26,117.26,0,0,1,113,123.18a103.78,103.78,0,0,1,22.29-9.88A71.28,71.28,0,0,1,157.55,110a34.22,34.22,0,0,1,10.53,2.22,82.45,82.45,0,0,1,10.38,4.67c6.83,3.56,13.45,7.74,20.23,11.74,3.4,2,6.84,4,10.46,5.76,15.72,6.86,26.44,8.23,33.78,9.94,3.67.86,17.61,5.1,20.69,6.73,17.25,8,15.09,30.33,14.27,33.49-1.65,6.35-6.48,19-21.39,30.49-12.47,7.06-26.91,8.37-32.17,8.59a139.24,139.24,0,0,1-15.12-.24c-4.79-.32-9.32-.83-13.54-1.44a203.07,203.07,0,0,1-21.62-4.29c-5.76-1.48-9.94-2.71-12.67-3.48s-4-1.09-3.93-.85C157.63,213.7,163.32,216.45,174.73,219.41Z"/><path class="cls-2" d="M168.15,130.19c-8.45-5.59-19.19-2.53-29.34,1-9.36,3.25-50.26,21.05-37.31,37.15,13.81,17.17,36.88-1.29,51.13-3.41,8.74-1.3,17.64-.07,22.94-9S176.23,135.55,168.15,130.19Z"/></svg>