<svg id="Layer_1" data-name="Layer 1" xmlns="http://www.w3.org/2000/svg" viewBox="0 0 500 500"><defs><style>.cls-1{fill:#ffe3cb;}.cls-2{fill:#fcfffd;}.cls-3{fill:#07090b;}</style></defs><path class="cls-1" d="M374.71,21.52c-41.8-7.69-74.59,58.94-88.78,88.06-9,18.52-17.19,37.34-25,56.53-2.83-32.77-10.2-77-18.54-105.69-9.61-33.09-34.66-71.12-73-53.56-24.74,11.33-27.54,93.61-22.15,125.56,3.6,21.37,8.07,42.64,13.16,63.91-31.07,15.34-54.5,41.14-58.89,81.44-4.74,43.57,5.12,117.35,47.62,142.12a42.46,42.46,0,0,0-4.36,8.25c-.32.26-.2-.61-.41-.29-9.43,15.7-3.94,30.26,8.1,42.1,19.21,18.88,48.26,29.6,74.48,28.66,41.13-1.47,109.3-13.62,131.45-55,9.1-17,4-47.59-13.06-57.37,4.05-11,7-22.35,9.71-31.8,7.59-26.64,17-54.46,15.81-82.91a93.66,93.66,0,0,0-9.41-38c17-40.4,36.9-101,46.72-125.66C425.8,63.6,411.45,28.28,374.71,21.52Z"/><path d="M231.25,500c-31.17,0-60.28-8.06-78.56-21.91l-.06,0c-11.14-8.85-16.84-23-15.27-37.86,1.38-13,7.69-20,12.17-22.47,1.58-.85,4.95,2.93,3.59,4.1-4.87,4.23-8.16,8.23-9.31,19.05-1.34,12.63,3.46,24.62,12.83,32.09,18.12,13.7,47.81,21.36,79.46,20.5,32.38-.29,79.48-9.47,105.88-34.36,5.6-5.17,32.16-32.36,7.89-62.9-1.12-1.4,4-5.43,5.08-4,21.59,27.16,8.89,55.58-8.55,71.67-12.11,11.42-29.68,20.83-50.8,27.19a218.21,218.21,0,0,1-59.38,8.91C234.56,500,232.9,500,231.25,500Z"/><path class="cls-2" d="M195.8,442.65c17.33,4.47,33.42,10,50.84,13.36,8.5,1.67,27.89,3.68,21.25,16.23a12.9,12.9,0,0,1-5.23,5.25c-10.17,11-44.34,6.75-54.68,5.2-16.67-2.52-54-14.52-57.87-34.47C145.83,426.46,186.43,440.23,195.8,442.65Z"/><path class="cls-3" d="M103.31,276.45l-9.23-.1s.09,7.84.22,11.5c.27,7.31.85,17.76,2.53,30.21a237.91,237.91,0,0,0,9.33,41.9,163.76,163.76,0,0,0,9.23,22.52A114.78,114.78,0,0,0,129,403.72a83.24,83.24,0,0,0,18.76,17,71.52,71.52,0,0,0,22.54,9.72c22.49,4.48,38,1.27,44.11-.21,30.66-8.85,29.38-10.26,35.33-14.94,2.16-2,4.14-5.13,1.63-5.71-.25-.08-3.25,3.26-3.91,3.87a29.28,29.28,0,0,1-6.77,4.34c-3.17,1.55-15.46,6.05-28.27,8.62-6,1.28-18.19,3.82-41-.19-25.27-9.49-33-19.76-37.95-26.08a108.41,108.41,0,0,1-12.38-20.48,155.8,155.8,0,0,1-8.26-21.83C98.93,304.41,103.31,276.45,103.31,276.45Z"/><path class="cls-3" d="M159,183.22c-.32-2-.74-4.19-1.33-6.55A57.49,57.49,0,0,0,151.4,161a44.68,44.68,0,0,0-6.29-8.13c-2.54-2.58-11.22-13.92-33.54-12.11A51.94,51.94,0,0,0,98.24,144c-.55.19-23,8.79-31.15,31.58-.23.64-4.39,11.25-2.68,32.79a133.46,133.46,0,0,0,9.36,33.14A144.68,144.68,0,0,0,91.69,273a117.31,117.31,0,0,0,12.55,14.12c8.56,8,22.62,20,52.71,21.51,7.3.36,21.27-2.79,29-13.68,5.22-6.4,9.68-16.72,10.15-18.44,4.08-13.53-1.77-29.47-2.33-31.09a134.4,134.4,0,0,0-7.51-19c-2.94-6.13-29.34-50.75-30.94-62-.18-.79-5.39-45.65-5.76-48.88q-1.17-9.69-1.89-19.29a222.76,222.76,0,0,1,.05-37.79,121.83,121.83,0,0,1,3.08-18.06,73.42,73.42,0,0,1,6.35-16.58c19.12-33.94,53.09-13.37,55.07-11.69a59,59,0,0,1,10.2,11.63,110.64,110.64,0,0,1,7.62,13.06,203.48,203.48,0,0,1,10.74,26.48c2.87,8.64,5.19,17,7.16,24.86,3.91,15.79,6.45,29.77,8.22,41.31s2.73,20.69,3.22,26.91c.25,3.12.64,14.69.62,16.1,0,.71,1.18,1,1.4.22.43-1.53.41-22.2-2.85-43.58-1.69-11.62-4.12-25.69-7.93-41.61-1.91-8-4.18-16.38-7-25.14a205.52,205.52,0,0,0-10.69-27c-2.24-4.56-9.56-20.55-25.5-30.77-2.57-1.3-17.94-8-34.45-2.31-14.48,7.25-18.66,18.16-19.37,19.55a77,77,0,0,0-6.86,17.47A124.13,124.13,0,0,0,143.42,58,226.44,226.44,0,0,0,143,96.52q.63,9.74,1.74,19.52c.35,3.26,3.14,32.61,3.88,39.32.17,1.67,10,38.69,23.19,55.91,3.24,5.81,6.36,11.66,9.16,17.63a127.62,127.62,0,0,1,7.05,18.26c4.76,17.28,2.88,24.76,2.05,27.68-1.62,6.53-6.86,13.57-8.88,15.83a38.07,38.07,0,0,1-6.83,5.88c-2.5,1.64-14.11,8.86-39,2.24-.71-.27-6.92-2.21-17.72-9.58a86.15,86.15,0,0,1-20.16-20.55,138.09,138.09,0,0,1-16.75-30,126.32,126.32,0,0,1-8.57-31.27,74.77,74.77,0,0,1-.42-15.12c.16-2.45,2.74-13.38,2.94-13.92C92,139,123.62,150,124,150.14s7,3,7.74,3.37a34.48,34.48,0,0,1,7,5.52,35.86,35.86,0,0,1,5,6.52C146.39,170.08,159.37,185.22,159,183.22Z"/><path class="cls-3" d="M256.73,180.53l6,1.52s16.08-48.14,25.05-68C298,91,306.41,75.66,313.16,66c8.06-14.28,20.11-26.87,25.22-31.46,22-15.87,34.38-12.33,37.8-11.66a47.19,47.19,0,0,1,19,8.58c12.88,11.07,16.48,22.27,17.35,25.68a49.72,49.72,0,0,1,1.64,10.35c.19,3.49-1.15,17.41-1.85,20.81a163.2,163.2,0,0,1-5.66,19.88c-4.46,12.89-16.36,42.73-17.35,45.63s-16.87,48.72-18.41,52.9.17,4.81,1.73.64,18-49.89,19-52.76,13.17-32.46,17.81-45.44c8.67-26.28,8.27-38.15,8.1-41.84a53,53,0,0,0-1.63-11A48.06,48.06,0,0,0,412,45.68a51.52,51.52,0,0,0-14.49-17.25A50.92,50.92,0,0,0,377,18.93a46.88,46.88,0,0,0-11.33-1c-3.8.13-10.19.85-21.43,6.61a68,68,0,0,0-8.79,6.61,121.64,121.64,0,0,0-14.5,15.55c-4.32,5.44-8.23,11-11.86,16.61S302.12,74.53,299,80c-6.22,11-11.54,21.72-16.19,31.72-9.26,20-15.83,37.18-20.05,49.35C260.66,167.2,256.73,180.53,256.73,180.53Z"/><path class="cls-3" d="M310.13,189.07a55.11,55.11,0,0,0-12.61-6,89.67,89.67,0,0,0-16.56-4,161.18,161.18,0,0,0-18.39-1.78,136,136,0,0,0-20.15.71,116,116,0,0,0-18.33,3.5c-5.57,1.53-12.17,3-22.05,8.33-5.38,2.76-5.61,4.26-1.39,2.37a104.92,104.92,0,0,1,23.49-6.69A199.12,199.12,0,0,1,262,182.83c21.27,1.8,43,6.25,46.56,8S313.47,191.29,310.13,189.07Z"/><path class="cls-2" d="M193.68,28c-3.36-22.19-24-11.9-29.33,4.36A37.66,37.66,0,0,0,163,46.7a165.59,165.59,0,0,0-1.27,18.68c-.07,8.11-.5,23.25,8.72,27.53,8.66,4,11-9,11.59-15,1-10.37,1.66-20.09,5.63-29.92C190.4,41.2,194.87,35.79,193.68,28Z"/><path class="cls-2" d="M380.75,35c-17.08-8.1-31.5-.05-41.85,12.57a78.41,78.41,0,0,0-12.67,15.26c-4.87,7.79-11.15,20.51-6.21,29.55,4.16,7.6,12.22,6.23,18,1.2,7.71-6.68,12-16.86,20.38-23,6.62-4.86,15.31-4.71,22.8-7.32C398,57.41,394.54,41.56,380.75,35Z"/><path class="cls-1" d="M317.71,413.48c51-11.66,85.3-48.23,104.91-95.09,7.79-18.6,17.92-44.31,4.44-62.59-8-10.9-20.36-18.69-31-26.43C384.5,221,373,210.64,362.32,201.17c-21.44-19-57.11-43.16-79.67-10.66-22,31.69,16.43,59.71,35.85,78.55-29.2,11.72-54.81,11.28-76.9,37.71-7.68,9.2-52.86,85.77-31.32,81.14Z"/><path class="cls-3" d="M255.68,297.05a59.28,59.28,0,0,1,4.74-4.84c8-8,16.1-11.2,22.72-13.69a102.49,102.49,0,0,1,23-5.61c1.08-.17,13.35-1.19,14-1.22,3.2-.13,6.56-.19,10.26-.16,1.83,0,3.73,0,5.66.05s5.86,0,5.86,0-4.47-2.25-5.47-2.75c-2.1-1.05-10.82-5.53-13.15-6.74,0,0-11.7-6.9-12.51-7.42a80.85,80.85,0,0,1-27.11-28.25,50.59,50.59,0,0,1-4.29-12.17C275.9,200,283,190.53,283,190.53s16.82-18.47,37.75-9.6a55,55,0,0,1,12.49,7.38c4,3,7.82,6.47,11.72,10,1.95,1.76,21,17,25.55,19.92,7.52,4.93,40.12,26.75,43.12,29.66a51.64,51.64,0,0,1,7.88,9.44c8.82,10.77,8.82,31.9-1.86,58.7a196.85,196.85,0,0,1-10.34,22.17,182.76,182.76,0,0,1-27,37.8,135.7,135.7,0,0,1-16.09,14.65,103.85,103.85,0,0,1-17.37,11c-.74.36-15,5.88-18,6.65s-6,1.37-8.94,1.89-5.84.9-8.68,1.19a140.26,140.26,0,0,1-30.84-.13,105.3,105.3,0,0,1-22.68-5.09c-5.79-2-17.45-7.86-17.59-7.81s0,.32.57.81c15.81,9.57,29.83,13.1,39,14.41a145,145,0,0,0,31,1c46.55-5.86,59.81-21.72,70.39-31.88a167.46,167.46,0,0,0,15.12-16.6,197.81,197.81,0,0,0,13.4-19.12,202.74,202.74,0,0,0,11.4-21.3,181.28,181.28,0,0,0,8.88-23.29,89.36,89.36,0,0,0,3-12.63c.75-4.33,5-24.86-8.39-39.16-3.67-6.11-24.09-21.11-68.21-51.31-8.09-6.78-15.84-14.79-25.54-20.88a48.27,48.27,0,0,0-16-6.65c-2.9-.58-8.35-2.18-21.48,1.68a35.75,35.75,0,0,0-21.22,20.06,50.83,50.83,0,0,0-.2,24,71,71,0,0,0,2.54,7.22,66.52,66.52,0,0,0,16.9,23.26c1.71,1.55,12.47,9.24,13.36,9.82s6.3,3.73,8.06,4.72c.88.51,9.81,4.92,10.16,5.08l-8.84.94c-1.22.1-9.42,1.11-10.54,1.31a106.05,106.05,0,0,0-23.75,6.51,87.77,87.77,0,0,0-9.56,4.36,76.93,76.93,0,0,0-7.58,5.38c-16.3,13.88-20.41,26.57-20.12,26.52s.76.87,3-4.24A90.6,90.6,0,0,1,255.68,297.05Z"/><path class="cls-2" d="M373.4,240.11c11.63-3.17,29.75,9,37.3,16.82,4.3,4.43,8.82,9.43,8.95,16a6.57,6.57,0,0,1,0,.74c.91,4.61.29,9.1-2.65,12.51-15,17.35-22.5-10.21-30.62-18C381,263.08,352.18,245.89,373.4,240.11Z"/><path class="cls-1" d="M181.06,239.4c-7.37-26.16-19.5-51.06-33.63-74.14-1.25-2-4.7-8.35-4.47-7.69-6.58-9.45-23.79-14.83-37.37-11.38-25.19,6.41-38.34,32-37.41,55.13C69.29,228.83,90.7,267,112,284.16c20.59,16.53,15.39-4.49,38-4.54C186.53,279.55,186.82,259.85,181.06,239.4Z"/><path class="cls-2" d="M116.16,201.34c-3.15-9.18-3.07-26.22-13-31.05a15.29,15.29,0,0,0-14.89,1.24c-.16.11-.3.23-.45.35-16,2.66-13.15,25.49-9.41,36.34,4.37,12.71,18.6,43.33,37.67,33.6C129,235.25,119.44,210.88,116.16,201.34Z"/></svg>